<?xml version="1.0" encoding="UTF-8"?>
<svg id="Layer_2" data-name="Layer 2" xmlns="http://www.w3.org/2000/svg" viewBox="0 0 442.06 121.64">
  <defs>
    <style>
      .cls-1 {
        fill: #d3bd8b;
      }

      .cls-2 {
        fill: none;
      }

      .cls-3 {
        fill: #c5ab83;
      }

      .cls-4 {
        fill: #b19157;
      }

      .cls-5 {
        fill: #f4ce7c;
      }

      .cls-6 {
        fill: #90a036;
      }

      .cls-7 {
        fill: #f4c950;
      }

      .cls-8 {
        fill: #c9ac68;
      }

      .cls-9 {
        fill: #f6eba5;
      }

      .cls-10 {
        fill: #7b5823;
      }

      .cls-11 {
        fill: #90702c;
      }

      .cls-12 {
        fill: #584a2a;
      }

      .cls-13 {
        fill: #fbe6a1;
      }

      .cls-14 {
        fill: #98722b;
      }

      .cls-15 {
        fill: #f3c142;
      }

      .cls-16 {
        fill: #f5c047;
      }

      .cls-17 {
        fill: #ddab4e;
      }

      .cls-18 {
        fill: #543114;
      }

      .cls-19 {
        fill: #9a875f;
      }

      .cls-20 {
        fill: #fff;
      }

      .cls-21 {
        fill: #f8dc7a;
      }

      .cls-22 {
        fill: #d8c085;
      }

      .cls-23 {
        fill: #ffde82;
      }

      .cls-24 {
        fill: #fde282;
      }

      .cls-25 {
        fill: #8c6432;
      }

      .cls-26 {
        fill: #fae476;
      }

      .cls-27 {
        fill: #fde160;
      }

      .cls-28 {
        fill: #ba925c;
      }

      .cls-29 {
        fill: #977b2f;
      }

      .cls-30 {
        fill: #7c632f;
      }

      .cls-31 {
        fill: #ffde99;
      }

      .cls-32 {
        fill: #9a733f;
      }

      .cls-33 {
        fill: #d7ae7a;
      }

      .cls-34 {
        fill: #b8a467;
      }

      .cls-35 {
        fill: #a08657;
      }
    </style>
  </defs>
  <g id="Layer_1-2" data-name="Layer 1">
    <g>
      <g>
        <g>
          <polygon class="cls-2" points="63.9 6.24 64.02 6.17 64.04 6.17 64.43 5.97 62.68 4.56 62.56 6.93 63.9 6.24"/>
          <polygon class="cls-2" points="64.69 6.17 64.43 5.97 64.04 6.17 64.69 6.17"/>
          <polygon class="cls-2" points="62.39 7.09 62.34 7.04 58.04 9.25 58.35 9.38 62.39 7.09"/>
          <polygon class="cls-2" points="63.9 6.24 62.56 6.93 62.55 7 63.9 6.24"/>
          <polygon class="cls-2" points="62.55 7 62.56 6.93 62.34 7.04 62.39 7.09 62.55 7"/>
          <polygon class="cls-2" points="26.28 26.4 28.93 25.83 26.73 25.9 26.28 26.4"/>
          <polygon class="cls-2" points="75.31 24.24 79.36 25.28 78.34 24.19 75.31 24.24"/>
          <polygon class="cls-4" points="62.54 7.26 61.97 18.75 75.31 24.24 78.34 24.19 62.54 7.26"/>
          <polygon class="cls-16" points="84.26 21.47 92.15 11.35 92.15 6.17 64.69 6.17 83 20.87 84.26 21.47"/>
          <polygon class="cls-21" points="58.35 9.38 58.04 9.25 50.29 13.23 61.97 18.07 62.54 7.26 62.39 7.09 58.35 9.38"/>
          <polygon class="cls-30" points="48.73 12.58 48.86 12.64 45.91 4.45 27.67 24.84 49.27 13.76 48.86 12.64 48.73 12.58"/>
          <polygon class="cls-6" points="64.02 6.17 63.9 6.24 64.04 6.17 64.02 6.17"/>
          <polygon class="cls-13" points="45.91 4.45 45.77 4.05 45.52 3.95 34.17 5.18 26.73 25.33 27.67 24.84 45.91 4.45"/>
          <polygon class="cls-6" points="62.39 7.09 62.54 7.26 62.55 7 62.39 7.09"/>
          <polygon class="cls-6" points="46.12 4.2 45.77 4.05 45.91 4.45 46.12 4.2"/>
          <polygon class="cls-13" points="26.73 25.9 27.67 24.84 26.73 25.33 26.52 25.91 26.73 25.9"/>
          <polygon class="cls-34" points="46.12 4.2 45.91 4.45 48.86 12.64 49.27 13.76 50.29 13.23 58.04 9.25 46.12 4.2"/>
          <polygon class="cls-11" points="61.93 18.75 61.62 24.75 75.31 24.24 61.93 18.75"/>
          <polygon class="cls-14" points="63.9 6.24 62.55 7 62.54 7.26 78.34 24.19 69.21 14.31 83 20.87 64.69 6.17 64.04 6.17 63.9 6.24"/>
          <polygon class="cls-21" points="61.97 18.07 50.29 13.23 49.27 13.76 49.47 14.31 49.27 13.76 27.67 24.84 26.73 25.9 28.93 25.83 61.93 18.75 61.97 18.07"/>
          <polygon class="cls-11" points="28.93 25.83 61.62 24.75 61.93 18.75 28.93 25.83"/>
        </g>
        <g>
          <polygon class="cls-2" points="92.59 47.22 92.93 47.31 94.17 42.06 92.46 41.72 92.59 41.88 92.59 47.22"/>
          <polygon class="cls-2" points="92.59 48.36 92.68 48.36 92.93 47.31 92.59 47.22 92.59 48.36"/>
          <polygon class="cls-2" points="30.9 29.48 29.95 29.29 30.97 29.58 30.78 29.48 30.9 29.48"/>
          <polygon class="cls-27" points="83.9 31.33 30.9 29.48 92.46 41.72 83.9 31.33"/>
          <polygon class="cls-29" points="97.59 48.36 92.68 48.36 89.19 63.12 89.26 63.16 90.4 63.16 97.64 48.44 97.59 48.36"/>
          <polygon class="cls-17" points="92.59 41.88 92.46 41.72 30.9 29.48 30.78 29.48 30.97 29.58 92.59 47.22 92.59 41.88"/>
          <polygon class="cls-33" points="97.64 48.44 90.4 63.16 105.73 63.16 97.64 48.44"/>
          <polygon class="cls-7" points="92.59 48.36 92.59 47.22 30.97 29.58 89.19 63.12 92.68 48.36 92.59 48.36"/>
        </g>
        <polygon class="cls-3" points="68.35 93.02 78.16 98.94 77.6 86.91 73.72 76.73 72.79 87.46 68.35 93.02"/>
        <polygon class="cls-32" points="72.42 78.4 69.34 93.02 62.43 95.24 66.5 100.79 77.6 86.91 72.42 78.4"/>
        <polygon class="cls-22" points="43.37 46.75 70.57 87.09 70.57 96.9 60.21 96.35 43.37 46.75"/>
        <polygon class="cls-19" points="42.19 41.94 90.06 75.25 89.94 86.6 81.06 83.76 42.19 41.94"/>
        <polygon class="cls-15" points="42.19 41.94 90.06 75.25 84.39 86.6 75.75 84.13 42.19 41.94"/>
        <g>
          <polygon class="cls-9" points="56.94 102.89 39.85 54.4 46.39 109.79 56.95 102.94 56.94 102.89"/>
          <polygon class="cls-8" points="60.58 121.64 56.95 102.94 46.39 109.79 46.39 109.8 60.58 121.64"/>
        </g>
        <g>
          <polygon class="cls-28" points="31.09 107.33 31.15 107.39 38.78 107.52 36.5 58.13 31.09 107.33"/>
          <polygon class="cls-9" points="31.23 107.48 31.15 107.39 31.15 107.39 31.23 107.48"/>
          <polygon class="cls-1" points="32.6 108.98 39.18 116.19 38.78 107.54 38.7 107.55 38.74 107.54 31.09 107.38 32.37 108.73 32.37 108.73 32.42 108.78 32.59 108.98 32.6 108.98"/>
          <polygon class="cls-12" points="36.52 57.98 36.5 58.13 38.78 107.52 38.9 107.52 38.78 107.54 39.18 116.19 39.57 116.61 42.53 106.99 36.52 57.98"/>
          <polygon class="cls-12" points="38.78 107.52 38.78 107.54 38.9 107.52 38.78 107.52"/>
        </g>
        <polygon class="cls-5" points="34.05 61.43 26.16 95.98 29.86 111.03 20.73 95.73 34.05 61.43"/>
        <polygon class="cls-24" points="24.43 74.76 8.64 96.96 15.3 115.22 15.3 96.96 24.43 74.76"/>
        <g>
          <polygon class="cls-2" points="38.87 46.25 38.86 46.25 38.86 46.26 38.87 46.25"/>
          <polygon class="cls-26" points="38.15 46.37 21.03 41.4 5.18 51.44 4.73 51.89 4.76 52.02 38.15 46.37"/>
          <polygon class="cls-31" points="33.35 38.36 26.9 29.11 20.85 38.24 20.87 38.34 20.92 38.36 33.35 38.36"/>
          <polygon class="cls-31" points="20.87 38.34 20.87 38.36 20.92 38.36 20.87 38.34"/>
          <polygon class="cls-24" points="38.84 46.27 38.86 46.26 38.86 46.25 38.82 46.26 38.84 46.27"/>
          <polygon class="cls-24" points="38.15 46.37 38.54 46.48 38.84 46.27 38.82 46.26 38.15 46.37"/>
          <polygon class="cls-10" points="4.76 52.02 8.77 67.61 38.54 46.48 38.15 46.37 4.76 52.02"/>
          <polygon class="cls-25" points="38.82 46.26 20.92 38.36 20.87 38.36 21.34 41.2 21.03 41.4 38.15 46.37 38.82 46.26"/>
          <polygon class="cls-35" points="38.82 46.26 38.86 46.25 33.35 38.36 20.92 38.36 38.82 46.26"/>
          <polygon class="cls-18" points="8.77 67.61 8.83 67.81 19.74 70.93 38.66 46.52 38.54 46.48 8.77 67.61"/>
          <polygon class="cls-24" points="4.73 51.89 4.57 52.05 4.76 52.02 4.73 51.89"/>
          <rect class="cls-24" x="38.85" y="46.26" width=".02" height="0" transform="translate(-21.51 48.68) rotate(-52.27)"/>
          <polygon class="cls-24" points="38.84 46.27 38.54 46.48 38.66 46.52 38.85 46.27 38.84 46.27"/>
          <polygon class="cls-24" points="8.59 67.75 8.83 67.81 8.77 67.61 8.59 67.75"/>
          <polygon class="cls-23" points="4.76 52.02 4.57 52.05 0 56.62 .74 65.5 8.59 67.75 8.77 67.61 4.76 52.02"/>
        </g>
      </g>
      <g>
        <path class="cls-20" d="M117.92,112.26v-19.06h1.57l8.23,14.87h-.82l8.15-14.87h1.57v19.06h-1.83v-16.04h.44l-7.51,13.62h-.9l-7.56-13.62h.49v16.04h-1.83Z"/>
        <path class="cls-20" d="M149.73,112.43c-2.3,0-4.11-.7-5.43-2.1-1.32-1.4-1.98-3.47-1.98-6.21v-10.92h1.9v10.84c0,2.25.48,3.91,1.44,4.98.96,1.07,2.31,1.61,4.06,1.61s3.13-.54,4.09-1.61c.96-1.07,1.44-2.73,1.44-4.98v-10.84h1.85v10.92c0,2.74-.66,4.81-1.97,6.21-1.31,1.4-3.12,2.1-5.41,2.1Z"/>
        <path class="cls-20" d="M162.84,112.26v-19.06h1.9v19.06h-1.9Z"/>
        <path class="cls-20" d="M170.61,112.26v-19.06h6.74c2.28,0,4.08.58,5.39,1.73,1.31,1.15,1.97,2.75,1.97,4.81,0,1.34-.3,2.5-.89,3.47-.59.97-1.44,1.72-2.53,2.23-1.1.52-2.41.78-3.93.78h-5.68l.85-.93v6.97h-1.9ZM172.51,105.45l-.85-.95h5.63c1.8,0,3.17-.42,4.1-1.25.93-.83,1.4-2.01,1.4-3.51s-.47-2.71-1.4-3.54c-.93-.84-2.3-1.25-4.1-1.25h-5.63l.85-.95v11.47ZM182.9,112.26l-4.63-6.92h2.06l4.65,6.92h-2.08Z"/>
        <path class="cls-20" d="M196.45,112.43c-2.3,0-4.11-.7-5.43-2.1-1.32-1.4-1.98-3.47-1.98-6.21v-10.92h1.9v10.84c0,2.25.48,3.91,1.44,4.98.96,1.07,2.31,1.61,4.06,1.61s3.13-.54,4.09-1.61c.96-1.07,1.44-2.73,1.44-4.98v-10.84h1.85v10.92c0,2.74-.66,4.81-1.97,6.21-1.31,1.4-3.12,2.1-5.41,2.1Z"/>
        <path class="cls-20" d="M209.57,112.26v-19.06h6.74c2.28,0,4.08.58,5.39,1.73,1.31,1.15,1.97,2.75,1.97,4.81,0,1.34-.3,2.5-.89,3.47-.59.97-1.44,1.72-2.53,2.23-1.1.52-2.41.78-3.93.78h-5.68l.85-.93v6.97h-1.9ZM211.47,105.45l-.85-.95h5.63c1.8,0,3.17-.42,4.1-1.25.93-.83,1.4-2.01,1.4-3.51s-.47-2.71-1.4-3.54c-.93-.84-2.3-1.25-4.1-1.25h-5.63l.85-.95v11.47ZM221.86,112.26l-4.63-6.92h2.06l4.65,6.92h-2.08Z"/>
        <path class="cls-20" d="M228.16,112.26v-19.06h1.9v19.06h-1.9Z"/>
        <path class="cls-20" d="M255.55,112.56l-9.93-10.81c-.6-.67-1.08-1.26-1.43-1.76-.35-.5-.6-.98-.73-1.43-.14-.45-.21-.93-.21-1.44,0-.82.18-1.53.55-2.14.37-.61.9-1.08,1.58-1.42.69-.34,1.49-.5,2.42-.5.84,0,1.57.15,2.2.45s1.11.73,1.47,1.29c.35.56.53,1.24.53,2.04,0,.69-.16,1.33-.48,1.93s-.84,1.18-1.56,1.76c-.72.57-1.7,1.21-2.93,1.92-1.08.64-1.93,1.22-2.56,1.74-.63.53-1.07,1.04-1.32,1.54-.26.5-.39,1.05-.39,1.65,0,.69.18,1.29.55,1.81.37.52.88.92,1.54,1.2.66.28,1.42.42,2.28.42,1.2,0,2.27-.26,3.21-.79.94-.53,1.74-1.32,2.38-2.4.64-1.07,1.11-2.41,1.4-4.03l1.47.49c-.33,1.82-.88,3.34-1.67,4.58-.79,1.23-1.77,2.17-2.93,2.8-1.17.64-2.49.95-3.96.95-1.17,0-2.2-.2-3.11-.61s-1.62-.98-2.15-1.7c-.52-.73-.78-1.57-.78-2.53,0-.82.17-1.57.51-2.25s.9-1.35,1.66-2.02c.76-.66,1.78-1.36,3.05-2.08,1.08-.64,1.92-1.18,2.53-1.65.61-.46,1.04-.91,1.3-1.34.26-.43.39-.88.39-1.37,0-.71-.23-1.28-.68-1.72-.45-.44-1.1-.65-1.94-.65-.91,0-1.61.24-2.11.72-.5.48-.75,1.1-.75,1.87,0,.38.06.74.17,1.09.11.35.33.73.64,1.14.32.42.76.94,1.32,1.58l9.52,10.38-1.05,1.28Z"/>
        <path class="cls-20" d="M263.72,112.26l8.23-19.06h1.88l8.23,19.06h-2.01l-7.56-17.89h.77l-7.56,17.89h-1.98ZM266.96,107.17l.57-1.63h10.47l.57,1.63h-11.6Z"/>
        <path class="cls-20" d="M290,112.43c-1.34,0-2.62-.23-3.84-.69-1.23-.46-2.17-1.06-2.84-1.78l.75-1.55c.63.65,1.49,1.2,2.56,1.65,1.07.45,2.2.67,3.38.67s2.05-.15,2.76-.45c.71-.3,1.23-.7,1.57-1.21s.5-1.07.5-1.69c0-.74-.2-1.34-.6-1.8-.4-.45-.93-.81-1.58-1.08-.65-.26-1.37-.49-2.16-.69-.79-.2-1.58-.41-2.37-.64-.79-.23-1.51-.53-2.17-.91-.66-.38-1.19-.88-1.59-1.51-.4-.63-.6-1.45-.6-2.46,0-.94.24-1.81.71-2.6.47-.79,1.2-1.42,2.17-1.91.98-.48,2.23-.72,3.75-.72,1.01,0,2.01.15,3.01.45s1.85.71,2.57,1.24l-.64,1.61c-.77-.55-1.59-.94-2.46-1.2-.87-.25-1.7-.38-2.51-.38-1.08,0-1.97.16-2.67.46-.7.31-1.22.72-1.56,1.24s-.5,1.1-.5,1.76c0,.74.2,1.34.6,1.8.4.45.93.81,1.59,1.06s1.38.48,2.17.68c.79.2,1.57.42,2.35.65.78.24,1.5.54,2.16.91.66.37,1.19.87,1.59,1.48.4.62.6,1.43.6,2.42,0,.93-.24,1.78-.72,2.57s-1.21,1.43-2.2,1.91c-.99.48-2.25.72-3.79.72Z"/>
        <path class="cls-20" d="M305.82,112.43c-1.34,0-2.62-.23-3.84-.69-1.23-.46-2.17-1.06-2.84-1.78l.75-1.55c.63.65,1.49,1.2,2.56,1.65,1.07.45,2.2.67,3.38.67s2.05-.15,2.76-.45c.71-.3,1.23-.7,1.57-1.21s.5-1.07.5-1.69c0-.74-.2-1.34-.6-1.8-.4-.45-.93-.81-1.58-1.08-.65-.26-1.37-.49-2.16-.69-.79-.2-1.58-.41-2.37-.64-.79-.23-1.51-.53-2.17-.91-.66-.38-1.19-.88-1.59-1.51-.4-.63-.6-1.45-.6-2.46,0-.94.24-1.81.71-2.6.47-.79,1.2-1.42,2.17-1.91.98-.48,2.23-.72,3.75-.72,1.01,0,2.01.15,3.01.45s1.85.71,2.57,1.24l-.64,1.61c-.77-.55-1.59-.94-2.46-1.2-.87-.25-1.7-.38-2.51-.38-1.08,0-1.97.16-2.67.46-.7.31-1.22.72-1.56,1.24s-.5,1.1-.5,1.76c0,.74.2,1.34.6,1.8.4.45.93.81,1.59,1.06s1.38.48,2.17.68c.79.2,1.57.42,2.35.65.78.24,1.5.54,2.16.91.66.37,1.19.87,1.59,1.48.4.62.6,1.43.6,2.42,0,.93-.24,1.78-.72,2.57s-1.21,1.43-2.2,1.91c-.99.48-2.25.72-3.79.72Z"/>
        <path class="cls-20" d="M324.54,112.43c-1.35,0-2.61-.24-3.77-.72-1.16-.48-2.16-1.16-3.01-2.04s-1.51-1.91-1.98-3.08c-.47-1.17-.71-2.46-.71-3.85s.24-2.68.71-3.85c.47-1.17,1.13-2.2,1.98-3.08s1.85-1.56,3-2.04,2.41-.72,3.78-.72,2.61.24,3.75.72c1.15.48,2.15,1.16,3,2.03.85.87,1.51,1.9,1.98,3.08.47,1.18.71,2.47.71,3.87s-.24,2.69-.71,3.87c-.47,1.18-1.13,2.21-1.98,3.08-.85.87-1.85,1.55-3,2.03-1.15.48-2.4.72-3.75.72ZM324.54,110.63c1.08,0,2.08-.2,3-.59s1.71-.94,2.39-1.66,1.2-1.55,1.58-2.51c.38-.95.57-2,.57-3.15s-.19-2.19-.57-3.15c-.38-.95-.9-1.79-1.58-2.51-.68-.72-1.47-1.27-2.39-1.66s-1.92-.59-3-.59-2.08.2-3.01.59c-.93.39-1.73.94-2.4,1.66-.68.72-1.21,1.55-1.59,2.51-.39.95-.58,2-.58,3.15s.19,2.17.58,3.13c.39.96.92,1.8,1.59,2.52s1.48,1.27,2.4,1.66c.93.39,1.93.59,3.01.59Z"/>
        <path class="cls-20" d="M346.06,112.43c-1.35,0-2.61-.24-3.75-.72-1.15-.48-2.14-1.16-2.98-2.03-.84-.87-1.5-1.9-1.97-3.08-.47-1.18-.71-2.47-.71-3.87s.24-2.69.71-3.87c.47-1.18,1.13-2.21,1.98-3.08.85-.87,1.85-1.55,3-2.03s2.4-.72,3.75-.72,2.53.23,3.68.69c1.15.46,2.12,1.16,2.91,2.08l-1.21,1.28c-.74-.8-1.55-1.38-2.44-1.73-.89-.35-1.85-.53-2.88-.53-1.08,0-2.08.2-3.01.59-.93.39-1.73.94-2.42,1.66-.69.72-1.22,1.55-1.61,2.51-.39.95-.58,2-.58,3.15s.19,2.19.58,3.15c.39.95.92,1.79,1.61,2.51s1.49,1.27,2.42,1.66c.93.39,1.93.59,3.01.59s1.99-.18,2.88-.54c.89-.36,1.71-.94,2.44-1.74l1.21,1.28c-.79.93-1.76,1.63-2.91,2.1-1.15.47-2.38.71-3.7.71Z"/>
        <path class="cls-20" d="M356.48,112.26v-19.06h1.9v19.06h-1.9Z"/>
        <path class="cls-20" d="M361.36,112.26l8.23-19.06h1.88l8.23,19.06h-2.01l-7.56-17.89h.77l-7.56,17.89h-1.98ZM364.6,107.17l.57-1.63h10.47l.57,1.63h-11.6Z"/>
        <path class="cls-20" d="M385.28,112.26v-17.32h-6.33v-1.74h14.56v1.74h-6.33v17.32h-1.9Z"/>
        <path class="cls-20" d="M396.54,112.26v-19.06h12.34v1.74h-10.44v15.58h10.83v1.74h-12.73ZM398.24,103.44v-1.72h9.52v1.72h-9.52Z"/>
        <path class="cls-20" d="M418.71,112.43c-1.34,0-2.62-.23-3.84-.69-1.23-.46-2.17-1.06-2.84-1.78l.75-1.55c.63.65,1.49,1.2,2.56,1.65,1.07.45,2.2.67,3.38.67s2.05-.15,2.76-.45c.71-.3,1.23-.7,1.57-1.21.34-.51.5-1.07.5-1.69,0-.74-.2-1.34-.6-1.8-.4-.45-.93-.81-1.58-1.08-.65-.26-1.37-.49-2.16-.69-.79-.2-1.58-.41-2.37-.64-.79-.23-1.51-.53-2.17-.91s-1.19-.88-1.59-1.51c-.4-.63-.6-1.45-.6-2.46,0-.94.23-1.81.71-2.6.47-.79,1.2-1.42,2.17-1.91.98-.48,2.23-.72,3.75-.72,1.01,0,2.01.15,3.01.45.99.3,1.85.71,2.57,1.24l-.64,1.61c-.77-.55-1.59-.94-2.46-1.2-.87-.25-1.7-.38-2.51-.38-1.08,0-1.97.16-2.67.46-.7.31-1.22.72-1.56,1.24s-.5,1.1-.5,1.76c0,.74.2,1.34.6,1.8.4.45.93.81,1.59,1.06s1.38.48,2.17.68c.79.2,1.57.42,2.35.65.78.24,1.5.54,2.16.91s1.19.87,1.59,1.48c.4.62.6,1.43.6,2.42,0,.93-.24,1.78-.72,2.57s-1.21,1.43-2.2,1.91c-.99.48-2.25.72-3.79.72Z"/>
      </g>
      <g>
        <path class="cls-20" d="M184.58,13.05h6.42v55.2h-4.63V18.58l-29.37,49.67h-5.69l-29.37-49.67v49.67h-4.63V13.05h6.42l30.43,51.6,30.43-51.6Z"/>
        <path class="cls-20" d="M255.57,13.03h4.63v30.04c0,16.35-10.21,25.67-27.23,25.67s-27.25-9.29-27.25-25.67V13.03h4.63v29.62c0,13.81,8.57,21.61,22.62,21.61s22.6-7.79,22.6-21.61V13.03Z"/>
        <path class="cls-20" d="M279.53,13.05v55.19h-4.63V13.05h4.63Z"/>
        <path class="cls-20" d="M346.39,68.25l-5.9-11.41h-40.7l-5.91,11.41h-5.09l28.57-55.34h5.56l28.56,55.34h-5.09ZM302.11,52.35h36.06l-18.03-34.84-18.03,34.84Z"/>
        <path class="cls-20" d="M419.73,68.25l-5.9-11.41h-40.7l-5.91,11.41h-5.09l28.57-55.34h5.56l28.56,55.34h-5.09ZM375.44,52.35h36.06l-18.03-34.84-18.03,34.84Z"/>
      </g>
      <g>
        <path class="cls-20" d="M413.21,9.86V0h1.22v8.96h6.48v.9h-7.7Z"/>
        <path class="cls-20" d="M423.92,9.86V.9h-4.06v-.9h9.35v.9h-4.06v8.96h-1.22Z"/>
        <path class="cls-20" d="M431.15,9.86V0h4.71c1.23,0,2.32.21,3.25.63.93.42,1.65,1,2.17,1.74s.78,1.6.78,2.56-.26,1.82-.78,2.56-1.24,1.32-2.17,1.74c-.93.42-2.01.63-3.25.63h-4.71ZM432.38,8.96h3.42c1.02,0,1.91-.17,2.67-.51.75-.34,1.34-.82,1.76-1.42s.63-1.3.63-2.09-.21-1.5-.63-2.1-1.01-1.07-1.76-1.42c-.75-.34-1.64-.51-2.67-.51h-3.42v8.06Z"/>
      </g>
      <rect class="cls-20" x="119.43" y="79.78" width="301.28" height="1.31"/>
    </g>
  </g>
</svg>