<?xml version="1.0" encoding="UTF-8"?>
<svg id="Layer_2" data-name="Layer 2" xmlns="http://www.w3.org/2000/svg" viewBox="0 0 271.81 49.4">
  <defs>
    <style>
      .cls-1 {
        fill: #a6d6af;
      }

      .cls-2 {
        fill: #a0d4ab;
      }
    </style>
  </defs>
  <g id="Layer_1-2" data-name="Layer 1">
    <g>
      <path class="cls-2" d="M47.53,14.49c-1.42-.32-2.83.14-3.8,1.08-.16-.12-.31-.24-.47-.35-.59-.38-1.25-.67-1.98-.83-.15-.03-.3-.05-.45-.08-1.06-.16-2.1-.03-3.04.33-1.38.52-2.55,1.54-3.25,2.88-.03.04-.05.08-.08.12-.49-.43-.92-.88-1.3-1.32.18-.08.37-.16.55-.24.93-.32,1.76-.86,2.43-1.56,1.05-1.1,1.69-2.58,1.69-4.21,0-.12-.01-.24-.02-.36-.03-.55-.13-1.07-.3-1.57-.09-.28-.21-.55-.34-.8-.04-.08-.09-.15-.13-.22.9-.76,1.47-1.9,1.47-3.17,0-2.29-1.87-4.16-4.16-4.16s-4.16,1.87-4.16,4.16c0,.07,0,.14.01.21-.23.06-.46.13-.68.21-.34.13-.66.29-.97.47-1.78,1.07-2.97,3.01-2.97,5.24,0,.85.18,1.66.49,2.4-.23,0-.45.02-.69.02-.28,0-.56-.01-.83-.02.31-.74.49-1.54.49-2.39,0-2.21-1.18-4.14-2.94-5.22-.3-.18-.61-.34-.94-.47-.41-.16-.85-.28-1.3-.35,0-.03,0-.06,0-.09,0-2.29-1.87-4.16-4.16-4.16s-4.16,1.87-4.16,4.16c0,1.45.75,2.73,1.87,3.47-.08.18-.16.36-.23.54-.24.66-.38,1.37-.38,2.11,0,.15.01.3.02.45.08,1.07.43,2.06.98,2.9.81,1.23,2.06,2.15,3.52,2.55.06.03.13.05.2.08-.2.31-.61.89-1.23,1.61-.02-.02-.03-.04-.05-.07-.7-1.34-1.87-2.35-3.25-2.88-.95-.36-1.99-.48-3.04-.33-.15.02-.3.04-.45.08-.72.16-1.39.45-1.98.83-.17.11-.32.23-.47.35-.97-.94-2.39-1.39-3.8-1.08-2.24.5-3.65,2.73-3.15,4.97.5,2.24,2.73,3.65,4.97,3.15.03,0,.06-.02.08-.02.17.42.37.82.62,1.19.2.29.42.56.66.82,1.43,1.48,3.58,2.21,5.74,1.73.48-.11.94-.28,1.37-.49h0c.1-.04.19-.1.28-.15.04-.02.07-.04.11-.06.16-.09.32-.18.47-.27.07.26.14.51.19.78.05.23.09.45.13.67-.79-.15-1.62-.14-2.45.04-2.17.48-3.8,2.07-4.46,4.04-.11.34-.2.69-.25,1.05-.03.23-.05.47-.06.71-.07.01-.14.02-.2.03-2.24.5-3.65,2.73-3.15,4.97.5,2.24,2.73,3.65,4.97,3.15,1.24-.28,2.22-1.08,2.77-2.12.08.02.16.06.25.08.28.07.57.12.86.15.52.05,1.06.04,1.6-.05.12-.02.24-.03.36-.06,1.59-.36,2.9-1.31,3.74-2.57.54-.8.88-1.73,1-2.71.08-.36.15-.73.2-1.11.35.13,1.04.41,1.94.9-.07.06-.15.11-.22.17-1.12,1.01-1.81,2.4-1.98,3.87-.11,1.01.03,2.05.44,3.03.06.14.12.28.18.41.34.66.78,1.23,1.3,1.71.15.13.3.25.46.37-.67,1.18-.76,2.66-.1,3.95,1.04,2.05,3.55,2.86,5.6,1.82,2.05-1.04,2.86-3.55,1.82-5.6-.01-.03-.03-.05-.04-.08.37-.27.7-.57,1-.9.23-.26.44-.55.62-.85,1.08-1.76,1.26-4.02.26-5.99-.36-.7-.83-1.3-1.39-1.79.32-.18.73-.4,1.22-.62.02.12.05.25.07.38.11.98.46,1.91,1,2.71.84,1.26,2.15,2.22,3.74,2.57.12.03.24.04.36.06.54.09,1.08.1,1.6.05.29-.03.58-.08.86-.15.08-.02.16-.06.25-.08.55,1.04,1.53,1.85,2.77,2.12,2.24.5,4.47-.91,4.97-3.15.5-2.24-.91-4.47-3.15-4.97-.07-.02-.14-.02-.2-.03,0-.24-.02-.47-.06-.71-.05-.36-.14-.71-.25-1.05-.66-1.97-2.3-3.55-4.46-4.04-.83-.19-1.66-.19-2.45-.04.04-.22.08-.45.13-.67.06-.27.13-.54.2-.81.65.47,1.4.81,2.23,1,2.16.48,4.3-.25,5.74-1.73.24-.25.47-.52.66-.82.25-.37.46-.77.62-1.19.03,0,.06.02.08.02,2.24.5,4.47-.91,4.97-3.15s-.91-4.47-3.15-4.97ZM34.34.63c1.95,0,3.53,1.58,3.53,3.53,0,1.04-.45,1.97-1.17,2.62-.16.14-.33.27-.51.38-.54.33-1.17.53-1.85.53-1.7,0-3.13-1.21-3.46-2.82-.04-.2-.06-.41-.07-.63,0-.03,0-.05,0-.08,0-1.95,1.58-3.53,3.53-3.53ZM29.58,5.22c.22-.09.45-.17.68-.23.39,1.9,2.07,3.33,4.08,3.33.8,0,1.54-.23,2.18-.62.06.11.13.21.18.33.05.1.09.2.13.3.09.24.17.49.23.75.07.3.11.61.12.93,0,.09.01.18.01.28,0,1.63-.72,3.1-1.86,4.1-.46.36-1,.69-1.6.99-.35.14-.71.24-1.09.31-.84-1.1-1.39-2.17-1.75-3.05.51-.13,1-.28,1.46-.45.06-.02.11-.04.17-.07.48-.22.85-.62,1.04-1.11.09-.23.14-.47.14-.73,0-1.11-.91-2.02-2.02-2.02s-2.02.91-2.02,2.02c0,.08,0,.16.02.24,0,0,.05.72.37,1.68.06.18.13.38.21.59.34.86.86,1.9,1.64,2.98.07.1.14.19.22.29.08.1.16.2.24.31.05.06.11.13.16.19.45.53.96,1.07,1.55,1.59-.62.92-1.18,1.98-1.67,3.14-1.42-1.03-2.54-2.41-3.42-3.8-.12-.19-.24-.39-.35-.58-.41-.72-.76-1.42-1.05-2.08-.25-.56-.45-1.08-.61-1.54-.06-.18-.12-.34-.17-.5-.02-.04-.04-.07-.06-.11-.18-.38-.32-.79-.42-1.21-.08-.37-.13-.76-.13-1.16,0-2.28,1.39-4.23,3.37-5.06ZM30.31,10.29c0-.77.62-1.39,1.39-1.39s1.39.62,1.39,1.39-.62,1.39-1.39,1.39-1.39-.62-1.39-1.39ZM30.72,12.05s-.02,0-.03,0c0-.01,0-.03-.01-.04.02,0,.03.02.05.03ZM12.18,4.16c0-1.95,1.58-3.53,3.53-3.53s3.53,1.58,3.53,3.53c0,0,0,.01,0,.02,0,.21-.02.42-.06.63-.31,1.64-1.74,2.88-3.47,2.88-.51,0-1-.11-1.43-.31-.19-.09-.37-.18-.55-.3-.94-.64-1.55-1.71-1.55-2.92ZM17.43,15.56c-1.26-.58-2.29-1.3-2.98-2.11-.55-.78-.91-1.71-.99-2.71-.01-.15-.02-.3-.02-.46,0-.47.07-.93.18-1.37.05-.2.11-.39.18-.58.03-.04.07-.07.1-.11-.01-.02-.02-.05-.03-.07.03-.08.08-.14.11-.22.53.24,1.11.38,1.73.38,2.05,0,3.75-1.49,4.09-3.45.03,0,.06,0,.08.01.42.07.82.19,1.2.36,1.95.84,3.33,2.78,3.33,5.04,0,.85-.2,1.64-.54,2.36-1.4-.09-2.72-.31-3.92-.63.59-.35,1-.99,1-1.73,0-1.11-.91-2.02-2.02-2.02s-2.02.91-2.02,2.02c0,.23.05.44.12.65.14.4.39.75.73.99.28.2.61.33.97.36,1.44.49,3.07.82,4.82.96.23.02.47.04.71.05.38.02.76.03,1.15.03.32,0,.63-.01.94-.03.34,1,.87,2.31,1.64,3.68-.83.1-1.69.16-2.58.16-2.1,0-4.07-.28-5.79-.77-.78-.22-1.51-.5-2.17-.8ZM18.92,11.68c-.06,0-.12-.01-.17-.02-.22-.07-.42-.16-.63-.24-.36-.25-.59-.67-.59-1.14,0-.77.62-1.39,1.39-1.39s1.39.62,1.39,1.39-.62,1.39-1.39,1.39ZM4.95,22.29s-.01,0-.02,0c-1.9.42-3.79-.78-4.22-2.68-.42-1.9.78-3.79,2.68-4.22,1.18-.26,2.37.1,3.19.88.15.14.29.3.41.47.29.39.5.83.61,1.33.38,1.68-.52,3.36-2.06,4.01-.19.08-.39.15-.6.2ZM14.24,25.04s-1.38.79-2.2.98c-2.2.49-4.4-.42-5.65-2.15-.24-.34-.45-.7-.61-1.1-.01-.03-.02-.05-.03-.08,1.83-.76,2.92-2.75,2.47-4.75-.13-.6-.4-1.14-.75-1.61.06-.05.12-.11.19-.16.02,0,.05.01.07.02.03-.04.06-.08.09-.12.17-.11.34-.21.53-.31.4-.21.83-.37,1.3-.47.15-.03.3-.06.45-.08,1-.14,1.98,0,2.86.38.94.5,1.86,1.34,2.71,2.45.06.11.11.23.16.35-.68.74-1.56,1.56-2.65,2.37-.14-.26-.28-.51-.43-.76-.11-.34-.31-.64-.57-.87-.31-.28-.71-.45-1.13-.5-.21-.02-.43-.02-.66.03-1.09.24-1.78,1.33-1.53,2.42.24,1.09,1.33,1.78,2.41,1.53.08-.02.15-.06.23-.09.19-.07.35-.17.51-.28.32-.18.7-.4.94-.56.17-.12.34-.24.51-.36,1.05-.77,1.92-1.56,2.61-2.28.06-.06.12-.12.17-.18.11-.12.22-.24.32-.35.04-.04.07-.08.1-.12.77-.88,1.24-1.58,1.44-1.9,1.05.4,2.21.71,3.46.93-.32.76-1.2,2.46-3.11,4.38-.16.15-.32.31-.49.47-.56.52-1.21,1.05-1.94,1.58-.39.28-.8.56-1.24.83-.18.11-.36.23-.55.34ZM11.14,22.02c-.75.17-1.49-.31-1.66-1.06-.17-.75.31-1.5,1.05-1.66.46-.1.91.04,1.24.33.12.18.25.36.37.56.02.05.04.11.05.17.17.75-.31,1.5-1.06,1.66ZM11.56,38.19c-.07.2-.16.4-.26.58-.47.84-1.29,1.49-2.3,1.71-1.9.42-3.79-.78-4.22-2.68-.42-1.9.78-3.79,2.68-4.22.03,0,.05,0,.08-.01.21-.04.42-.07.63-.07,1.64-.03,3.14,1.1,3.51,2.76.15.66.09,1.32-.11,1.92ZM19.45,31.25c-.06.99-.19,1.92-.41,2.76-.16.65-.37,1.24-.62,1.77-.73,1.33-2.01,2.35-3.6,2.71-.09.02-.18.03-.27.05-.31.05-.63.08-.93.08-.26,0-.52-.02-.78-.06-.11-.02-.22-.03-.32-.06-.12-.03-.24-.07-.36-.1.24-.7.31-1.48.13-2.26-.44-1.96-2.2-3.29-4.13-3.25,0-.24.03-.48.07-.72.38-2.11,1.98-3.9,4.21-4.39.83-.19,1.66-.17,2.43.02.23,1.4.31,2.74.27,4-.47-.53-1.2-.8-1.95-.64-1.09.24-1.78,1.33-1.53,2.42.24,1.09,1.33,1.78,2.41,1.53.25-.06.48-.16.68-.3.44-.29.74-.75.85-1.26,0-.06.02-.12.03-.18.21-1.63.18-3.47-.1-5.38-.03-.23-.07-.47-.11-.7-.06-.33-.12-.65-.19-.98-.07-.33-.16-.65-.24-.97,1.28-.79,2.34-1.6,3.23-2.39.28.81.53,1.65.73,2.53.45,2.03.61,4.01.51,5.78ZM13.93,34.49c-.75.17-1.49-.31-1.66-1.06-.17-.75.31-1.5,1.05-1.66.75-.17,1.5.31,1.66,1.06.17.75-.31,1.49-1.06,1.66ZM19.55,25.34c-.22-1-.51-1.95-.84-2.86,2.27-2.19,3.2-4.16,3.51-4.93,1.01.14,2.07.22,3.17.22,1.01,0,1.98-.07,2.92-.19.95,1.57,2.22,3.14,3.87,4.31-.38.99-.7,2.04-.94,3.15-.22.99-.36,1.96-.45,2.9-2.3.8-3.84,1.82-4.71,2.52-3.07-2.14-5.52-2.56-6.11-2.63-.09-.82-.22-1.65-.41-2.5ZM27.24,48.39c-1.74.88-3.86.19-4.75-1.55-.55-1.08-.49-2.32.06-3.31.1-.18.22-.35.35-.52.3-.37.68-.69,1.14-.92,1.54-.78,3.38-.32,4.4,1,.13.16.24.34.34.53,0,0,0,.01.01.02.88,1.74.19,3.86-1.55,4.75ZM29.99,34.88c.24.29.45.61.63.95,1.02,2.01.68,4.37-.68,6-.26.32-.57.61-.91.86-.02.02-.05.03-.07.05-1.19-1.59-3.38-2.14-5.21-1.21-.55.28-1.01.67-1.37,1.13-.06-.05-.14-.09-.2-.14,0-.03,0-.05,0-.08-.05-.02-.1-.03-.14-.05-.15-.14-.29-.28-.43-.43-.3-.34-.57-.72-.78-1.14-.07-.14-.13-.28-.19-.42-.38-.93-.48-1.92-.34-2.87.25-1.04.84-2.14,1.7-3.23.13-.12.28-.24.43-.35.95.57,2.06,1.34,3.19,2.36-.27.01-.55.08-.81.21-.06.03-.12.08-.18.11-.3.2-.54.46-.7.76-.19.37-.26.79-.2,1.22.03.21.09.43.19.63.51.99,1.73,1.39,2.72.89s1.39-1.73.89-2.72c-.04-.07-.09-.13-.13-.19h0s-.03-.03-.04-.05c-.13-.15-.27-.28-.4-.42-1.37-1.42-2.76-2.46-3.94-3.19-.09-.05-.17-.1-.25-.15-.12-.07-.24-.14-.36-.21-1.19-.67-2.09-1.01-2.42-1.13.12-1.12.14-2.33.04-3.59.7.11,2.88.59,5.54,2.41.18.12.35.24.54.38.51.37,1.03.79,1.55,1.27.33.3.67.61,1,.96.04.04.09.09.13.13.11.11.21.21.32.33.04.04.08.09.12.14.05.05.09.1.14.15.22.2.43.41.62.64ZM26.5,37.18c.14.14.28.28.41.43.02.03.04.05.05.08.35.68.07,1.52-.61,1.87-.68.35-1.52.07-1.87-.61-.21-.42-.19-.89.01-1.28.15-.17.29-.33.45-.5.05-.03.09-.07.15-.09.47-.24,1-.18,1.41.09ZM43.25,33.28s.05,0,.08.01c1.9.42,3.1,2.32,2.68,4.22-.42,1.9-2.32,3.1-4.22,2.68-1.01-.23-1.83-.87-2.3-1.71-.1-.18-.19-.38-.26-.58-.21-.6-.26-1.26-.11-1.92.37-1.66,1.87-2.79,3.51-2.76.21,0,.42.03.63.07ZM36.89,27.35c.48-.03.97,0,1.46.11,2.22.5,3.83,2.28,4.21,4.39.04.24.06.47.07.72-1.93-.03-3.7,1.29-4.13,3.25-.17.78-.11,1.56.13,2.26-.12.03-.24.08-.36.1-.11.02-.22.04-.32.06-.26.04-.52.06-.78.06-.31,0-.62-.03-.93-.08-.09-.02-.18-.03-.27-.05-1.59-.36-2.87-1.38-3.6-2.71-.25-.53-.45-1.13-.62-1.77-.05-.28-.07-.57-.07-.85.92-.38,2.06-.77,3.37-1.05.02.43.06.85.11,1.26,0,.06.02.12.03.18.11.51.42.97.85,1.26.2.14.43.24.68.3,1.09.24,2.17-.44,2.41-1.53.24-1.09-.44-2.17-1.53-2.42-.36-.08-.72-.06-1.04.05-.31.04-.61.09-.91.14-.21.04-.41.08-.62.12-1.28.27-2.39.62-3.32.99-.08.03-.16.06-.24.1-.14.06-.28.12-.41.18-.06.02-.11.05-.17.07-.64.29-1.16.57-1.54.79-.93-.97-1.85-1.78-2.73-2.44.82-.63,2.17-1.49,4.11-2.21.2-.08.42-.15.64-.22.7-.23,1.47-.43,2.3-.6.51-.1,1.04-.2,1.61-.27.21-.03.43-.05.64-.07.03,0,.07-.01.1-.02.28-.06.57-.09.86-.1ZM37.28,31.44c.06,0,.12,0,.18.02.75.17,1.22.91,1.05,1.66-.17.75-.91,1.22-1.66,1.06-.75-.17-1.22-.91-1.06-1.66.11-.48.45-.84.88-1,.2-.03.4-.05.6-.07h0ZM45,22.47c-.16.39-.37.76-.61,1.1-1.25,1.72-3.44,2.64-5.65,2.15-.83-.18-1.56-.55-2.19-1.04.39-1.34.89-2.59,1.47-3.69.21.66.75,1.19,1.47,1.35,1.09.24,2.17-.44,2.41-1.53s-.44-2.17-1.53-2.42c-.22-.05-.44-.05-.66-.03-.42.05-.82.22-1.13.5-.26.23-.45.52-.57.87-.79,1.3-1.47,2.82-1.99,4.5-.07.22-.14.45-.2.68-.1.36-.2.73-.28,1.11-.07.3-.12.6-.17.89-1.5.18-2.81.48-3.95.83.09-.83.22-1.69.41-2.55.46-2.05,1.16-3.91,2.02-5.48.39-.72.81-1.36,1.26-1.94.84-1.11,1.76-1.95,2.71-2.45.88-.37,1.86-.52,2.86-.38.15.02.3.04.45.08.46.1.89.27,1.3.47.18.09.36.19.53.31.03.04.06.08.09.12.02,0,.05-.01.07-.02.07.05.12.11.19.16-.35.46-.62,1-.75,1.61-.45,2,.64,3.99,2.47,4.75-.01.03-.02.05-.03.08ZM38.59,20.05c.01-.06.04-.11.05-.17.12-.19.24-.38.37-.56.32-.29.78-.43,1.24-.33.75.17,1.22.91,1.05,1.66-.17.75-.91,1.22-1.66,1.06-.75-.17-1.22-.91-1.06-1.66ZM50.07,19.32c-.42,1.9-2.32,3.1-4.22,2.68,0,0-.01,0-.02,0-.21-.05-.41-.12-.6-.2-1.53-.66-2.43-2.33-2.06-4.01.11-.5.33-.95.61-1.33.12-.17.26-.32.41-.47.82-.77,2.01-1.14,3.19-.88,1.9.42,3.1,2.32,2.68,4.22Z"/>
      <g>
        <path class="cls-1" d="M66.48,35.94c-1.46,0-2.8-.27-4.04-.8-1.24-.53-2.31-1.28-3.21-2.24-.9-.96-1.61-2.09-2.12-3.39s-.76-2.72-.76-4.27.25-2.96.76-4.27c.51-1.3,1.22-2.43,2.13-3.39.91-.96,1.99-1.71,3.22-2.24,1.24-.53,2.58-.8,4.04-.8s2.72.26,3.96.77c1.24.51,2.28,1.28,3.13,2.3l-1.3,1.41c-.79-.88-1.67-1.52-2.63-1.91-.96-.39-1.99-.59-3.1-.59-1.16,0-2.24.22-3.24.65-1,.43-1.86,1.04-2.6,1.83-.74.79-1.31,1.71-1.73,2.76s-.62,2.21-.62,3.47.21,2.42.62,3.47.99,1.97,1.73,2.76c.74.79,1.6,1.4,2.6,1.83,1,.43,2.07.65,3.24.65s2.14-.2,3.1-.6c.96-.4,1.84-1.04,2.63-1.92l1.3,1.41c-.85,1.02-1.89,1.79-3.13,2.31-1.24.52-2.56.78-3.98.78Z"/>
        <path class="cls-1" d="M77.27,35.76V13.47h1.96v10.85l-.39-.81c.46-1.14,1.2-2.04,2.21-2.69,1.01-.65,2.22-.98,3.62-.98,1.18,0,2.22.25,3.11.74.89.49,1.6,1.24,2.1,2.24s.76,2.26.76,3.78v9.16h-1.96v-8.95c0-1.66-.38-2.92-1.15-3.77-.77-.85-1.84-1.28-3.22-1.28-1.03,0-1.93.23-2.7.68-.77.45-1.36,1.1-1.77,1.95-.42.85-.62,1.88-.62,3.08v8.29h-1.96Z"/>
        <path class="cls-1" d="M100.06,35.91c-1.09,0-2.03-.2-2.84-.59-.8-.39-1.42-.93-1.84-1.62-.42-.69-.64-1.49-.64-2.39,0-.82.18-1.57.54-2.24.36-.67.95-1.21,1.77-1.62.82-.41,1.92-.62,3.31-.62h5.01v1.59h-4.95c-1.4,0-2.37.27-2.92.81-.54.54-.82,1.21-.82,2.01,0,.9.32,1.62.97,2.16.65.54,1.55.81,2.71.81s2.06-.28,2.86-.83c.8-.55,1.39-1.35,1.76-2.39l.44,1.47c-.37,1.04-1.01,1.87-1.92,2.49-.91.62-2.06.93-3.44.93ZM105.07,35.76v-3.48l-.08-.57v-5.83c0-1.34-.35-2.37-1.04-3.09s-1.72-1.08-3.08-1.08c-.94,0-1.84.17-2.68.51-.85.34-1.57.79-2.16,1.35l-.89-1.59c.74-.68,1.62-1.21,2.66-1.58,1.03-.37,2.12-.56,3.26-.56,1.88,0,3.33.51,4.36,1.52,1.02,1.01,1.54,2.55,1.54,4.61v9.79h-1.88Z"/>
        <path class="cls-1" d="M112.29,35.76v-15.77h1.88v4.27l-.3-.75c.44-1.14,1.16-2.04,2.14-2.69.99-.65,2.15-.98,3.5-.98,1.42,0,2.63.39,3.62,1.16,1,.77,1.64,1.93,1.94,3.47l-.77-.33c.42-1.28,1.18-2.32,2.25-3.11,1.08-.79,2.37-1.19,3.89-1.19,1.18,0,2.21.25,3.08.74.88.49,1.56,1.24,2.05,2.24.49,1,.73,2.26.73,3.78v9.16h-1.96v-8.95c0-1.66-.36-2.92-1.09-3.77-.73-.85-1.76-1.28-3.08-1.28-1,0-1.86.23-2.59.68-.73.45-1.29,1.1-1.69,1.95-.4.85-.59,1.88-.59,3.08v8.29h-1.96v-8.95c0-1.66-.37-2.92-1.11-3.77-.74-.85-1.77-1.28-3.1-1.28-.98,0-1.84.23-2.57.68-.74.45-1.3,1.1-1.7,1.95-.4.85-.59,1.88-.59,3.08v8.29h-1.96Z"/>
        <path class="cls-1" d="M145.74,35.91c-1.09,0-2.03-.2-2.84-.59-.8-.39-1.42-.93-1.84-1.62-.42-.69-.64-1.49-.64-2.39,0-.82.18-1.57.54-2.24.36-.67.95-1.21,1.77-1.62.82-.41,1.92-.62,3.31-.62h5.01v1.59h-4.95c-1.4,0-2.37.27-2.92.81-.54.54-.82,1.21-.82,2.01,0,.9.32,1.62.97,2.16.65.54,1.55.81,2.71.81s2.06-.28,2.86-.83c.8-.55,1.39-1.35,1.76-2.39l.44,1.47c-.37,1.04-1.01,1.87-1.92,2.49-.91.62-2.06.93-3.44.93ZM150.75,35.76v-3.48l-.08-.57v-5.83c0-1.34-.35-2.37-1.04-3.09s-1.72-1.08-3.08-1.08c-.94,0-1.84.17-2.68.51-.85.34-1.57.79-2.16,1.35l-.89-1.59c.74-.68,1.62-1.21,2.66-1.58,1.03-.37,2.12-.56,3.26-.56,1.88,0,3.33.51,4.36,1.52,1.02,1.01,1.54,2.55,1.54,4.61v9.79h-1.88Z"/>
        <path class="cls-1" d="M166.79,35.94c-1.46,0-2.8-.27-4.04-.8-1.24-.53-2.31-1.28-3.21-2.24-.9-.96-1.61-2.09-2.12-3.39s-.76-2.72-.76-4.27.25-2.96.76-4.27c.51-1.3,1.22-2.43,2.13-3.39.91-.96,1.99-1.71,3.22-2.24,1.24-.53,2.58-.8,4.04-.8s2.72.26,3.96.77c1.24.51,2.28,1.28,3.13,2.3l-1.3,1.41c-.79-.88-1.67-1.52-2.63-1.91-.96-.39-1.99-.59-3.1-.59-1.16,0-2.24.22-3.24.65-1,.43-1.86,1.04-2.6,1.83-.74.79-1.31,1.71-1.73,2.76s-.62,2.21-.62,3.47.21,2.42.62,3.47.99,1.97,1.73,2.76c.74.79,1.6,1.4,2.6,1.83,1,.43,2.07.65,3.24.65s2.14-.2,3.1-.6c.96-.4,1.84-1.04,2.63-1.92l1.3,1.41c-.85,1.02-1.89,1.79-3.13,2.31-1.24.52-2.56.78-3.98.78Z"/>
        <path class="cls-1" d="M182.87,35.91c-1.4,0-2.66-.35-3.78-1.04-1.12-.69-2-1.64-2.64-2.85-.65-1.21-.97-2.6-.97-4.16s.32-2.97.97-4.18c.65-1.2,1.52-2.14,2.63-2.82,1.11-.68,2.37-1.02,3.79-1.02s2.72.34,3.83,1.02c1.12.68,1.99,1.62,2.63,2.82.64,1.2.95,2.59.95,4.18s-.32,2.95-.95,4.16c-.64,1.21-1.52,2.16-2.64,2.85-1.13.69-2.4,1.04-3.82,1.04ZM182.87,34.01c1.05,0,1.98-.26,2.79-.77.81-.51,1.45-1.23,1.92-2.16s.71-2.01.71-3.23-.24-2.32-.71-3.24-1.11-1.64-1.92-2.15c-.81-.51-1.73-.77-2.77-.77s-1.96.26-2.77.77c-.81.51-1.46,1.23-1.94,2.15s-.72,2-.72,3.24.24,2.3.72,3.23,1.13,1.65,1.94,2.16c.81.51,1.72.77,2.74.77Z"/>
        <path class="cls-1" d="M194.29,35.76v-15.77h1.88v4.33l-.3-.81c.46-1.14,1.2-2.04,2.21-2.69,1.01-.65,2.22-.98,3.62-.98,1.18,0,2.22.25,3.11.74.9.49,1.6,1.24,2.1,2.24s.76,2.26.76,3.78v9.16h-1.96v-8.95c0-1.66-.38-2.92-1.15-3.77s-1.84-1.28-3.22-1.28c-1.03,0-1.93.23-2.7.68-.77.45-1.36,1.1-1.77,1.95-.42.85-.62,1.88-.62,3.08v8.29h-1.96Z"/>
        <path class="cls-1" d="M212.99,35.76v-15.77h1.88v4.33l-.3-.81c.46-1.14,1.2-2.04,2.21-2.69,1.01-.65,2.22-.98,3.62-.98,1.18,0,2.22.25,3.11.74.89.49,1.6,1.24,2.1,2.24.51,1,.76,2.26.76,3.78v9.16h-1.96v-8.95c0-1.66-.38-2.92-1.15-3.77-.77-.85-1.84-1.28-3.22-1.28-1.03,0-1.93.23-2.7.68-.77.45-1.36,1.1-1.77,1.95s-.62,1.88-.62,3.08v8.29h-1.96Z"/>
        <path class="cls-1" d="M237.86,35.91c-1.51,0-2.84-.35-3.98-1.04-1.14-.69-2.04-1.64-2.68-2.85-.65-1.21-.97-2.6-.97-4.16s.31-2.94.93-4.15c.62-1.2,1.47-2.15,2.54-2.84,1.08-.69,2.29-1.04,3.64-1.04s2.58.34,3.64,1.01c1.06.67,1.89,1.61,2.5,2.82.61,1.21.91,2.61.91,4.19,0,.1,0,.21-.01.32,0,.11-.01.23-.01.35h-12.64v-1.59h11.59l-.77.63c0-1.14-.23-2.16-.68-3.05-.45-.89-1.07-1.59-1.84-2.09-.78-.5-1.67-.75-2.68-.75s-1.89.25-2.68.75c-.79.5-1.41,1.2-1.85,2.1s-.66,1.93-.66,3.09v.33c0,1.2.24,2.26.73,3.17.49.91,1.17,1.62,2.05,2.13.88.51,1.88.77,3,.77.89,0,1.71-.17,2.48-.51.77-.34,1.43-.86,1.98-1.56l1.11,1.38c-.65.84-1.45,1.48-2.42,1.92-.97.44-2.03.66-3.2.66Z"/>
        <path class="cls-1" d="M254.43,35.91c-1.44,0-2.73-.35-3.86-1.04-1.13-.69-2.02-1.64-2.67-2.85-.65-1.21-.97-2.6-.97-4.16s.32-2.97.97-4.18c.65-1.2,1.54-2.14,2.67-2.82,1.13-.68,2.42-1.02,3.86-1.02,1.24,0,2.35.26,3.35.78,1,.52,1.78,1.3,2.35,2.34l-1.47,1.08c-.5-.8-1.12-1.39-1.85-1.77-.74-.38-1.54-.57-2.41-.57-1.03,0-1.96.26-2.79.77-.83.51-1.48,1.23-1.96,2.15s-.72,2-.72,3.24.24,2.32.72,3.24c.48.92,1.13,1.64,1.96,2.15.83.51,1.76.77,2.79.77.87,0,1.67-.19,2.41-.57.74-.38,1.36-.96,1.85-1.74l1.47,1.08c-.57,1.02-1.36,1.8-2.35,2.33-1,.53-2.11.8-3.35.8Z"/>
        <path class="cls-1" d="M261.88,21.76v-1.77h8.99v1.77h-8.99ZM268.74,35.91c-1.37,0-2.42-.4-3.15-1.2-.74-.8-1.11-1.93-1.11-3.39v-14.81h1.96v14.69c0,.92.22,1.63.65,2.13.43.5,1.06.75,1.87.75.87,0,1.59-.27,2.16-.81l.69,1.53c-.39.38-.85.66-1.4.84-.54.18-1.1.27-1.67.27Z"/>
      </g>
    </g>
  </g>
</svg>