<?xml version="1.0" encoding="UTF-8"?>
<svg id="Layer_2" data-name="Layer 2" xmlns="http://www.w3.org/2000/svg" viewBox="0 0 307.97 109.02">
  <defs>
    <style>
      .cls-1 {
        fill: #fff;
      }
    </style>
  </defs>
  <g id="Layer_1-2" data-name="Layer 1">
    <g>
      <g>
        <path class="cls-1" d="M86,36.28h15.16c3.3,0,5.77.8,7.42,2.39,1.64,1.6,2.47,3.87,2.47,6.81s-.9,5.39-2.69,7.1c-1.79,1.7-4.53,2.56-8.2,2.56h-4.99v11.12h-9.16v-29.98ZM95.16,49.06h2.23c1.76,0,2.99-.31,3.7-.93s1.07-1.41,1.07-2.38-.31-1.74-.93-2.39c-.62-.65-1.78-.98-3.48-.98h-2.6v6.69Z"/>
        <path class="cls-1" d="M135.02,36.28h9.1v17.86c0,1.77-.27,3.44-.82,5.02s-1.39,2.95-2.55,4.13c-1.16,1.18-2.38,2.01-3.65,2.48-1.77.67-3.9,1-6.38,1-1.44,0-3-.1-4.7-.31-1.7-.21-3.12-.61-4.26-1.22-1.14-.61-2.18-1.47-3.13-2.58s-1.59-2.27-1.94-3.45c-.56-1.91-.84-3.6-.84-5.07v-17.86h9.1v18.28c0,1.63.45,2.91,1.34,3.83.89.92,2.13,1.38,3.71,1.38s2.8-.45,3.69-1.36c.89-.91,1.34-2.19,1.34-3.85v-18.28Z"/>
        <path class="cls-1" d="M150.11,36.28h15.15c3.3,0,5.77.8,7.42,2.39,1.64,1.6,2.47,3.87,2.47,6.81s-.9,5.39-2.69,7.1c-1.79,1.7-4.53,2.56-8.2,2.56h-4.99v11.12h-9.16v-29.98ZM159.27,49.06h2.23c1.76,0,2.99-.31,3.7-.93s1.07-1.41,1.07-2.38-.31-1.74-.93-2.39c-.62-.65-1.78-.98-3.48-.98h-2.6v6.69Z"/>
        <path class="cls-1" d="M178.33,56.34l8.67-.55c.19,1.43.57,2.52,1.15,3.27.94,1.21,2.28,1.82,4.03,1.82,1.3,0,2.3-.31,3.01-.93.71-.62,1.06-1.34,1.06-2.16s-.34-1.47-1-2.09c-.67-.61-2.23-1.19-4.67-1.74-4-.91-6.85-2.13-8.55-3.64-1.72-1.51-2.58-3.44-2.58-5.79,0-1.54.44-3,1.32-4.37s2.2-2.45,3.97-3.23c1.76-.78,4.18-1.18,7.25-1.18,3.77,0,6.65.71,8.63,2.14,1.98,1.42,3.16,3.69,3.53,6.8l-8.59.51c-.23-1.35-.71-2.33-1.44-2.94s-1.74-.92-3.03-.92c-1.06,0-1.86.23-2.4.68s-.8,1.01-.8,1.67c0,.48.22.91.66,1.29.43.4,1.45.76,3.06,1.1,3.98.87,6.84,1.76,8.56,2.65,1.72.89,2.98,2,3.76,3.32.78,1.32,1.18,2.8,1.18,4.44,0,1.92-.52,3.69-1.57,5.32s-2.51,2.85-4.39,3.69c-1.88.84-4.25,1.26-7.1,1.26-5.02,0-8.49-.98-10.43-2.94-1.93-1.96-3.03-4.46-3.28-7.48Z"/>
        <path class="cls-1" d="M206.65,36.28h8.66l3.12,16.78,4.56-16.78h8.63l4.57,16.76,3.12-16.76h8.62l-6.51,29.98h-8.94l-5.18-18.87-5.16,18.87h-8.94l-6.57-29.98Z"/>
        <path class="cls-1" d="M269.05,61.31h-10.35l-1.44,4.95h-9.31l11.09-29.98h9.95l11.09,29.98h-9.55l-1.48-4.95ZM267.16,54.83l-3.26-10.78-3.22,10.78h6.48Z"/>
        <path class="cls-1" d="M282.93,36.28h15.15c3.3,0,5.77.8,7.42,2.39,1.64,1.6,2.47,3.87,2.47,6.81s-.9,5.39-2.69,7.1c-1.79,1.7-4.53,2.56-8.2,2.56h-4.99v11.12h-9.16v-29.98ZM292.09,49.06h2.23c1.76,0,2.99-.31,3.7-.93s1.07-1.41,1.07-2.38-.31-1.74-.93-2.39c-.62-.65-1.78-.98-3.48-.98h-2.6v6.69Z"/>
      </g>
      <g>
        <path class="cls-1" d="M128.63,76.16h3.25c.73,0,1.29.06,1.68.19.52.17.96.47,1.32.9.37.43.65.95.84,1.57.19.62.29,1.39.29,2.3,0,.8-.09,1.49-.27,2.07-.22.71-.53,1.28-.94,1.72-.31.33-.72.59-1.25.78-.39.14-.92.21-1.57.21h-3.34v-9.71ZM130.4,77.8v6.44h1.33c.5,0,.85-.03,1.07-.09.29-.08.53-.21.72-.4s.35-.5.47-.94c.12-.44.18-1.03.18-1.78s-.06-1.33-.18-1.73-.29-.71-.51-.94c-.22-.23-.49-.38-.82-.46-.25-.06-.74-.09-1.46-.09h-.8Z"/>
        <path class="cls-1" d="M139.23,85.88v-9.71h6.53v1.64h-4.75v2.15h4.42v1.64h-4.42v2.64h4.92v1.64h-6.69Z"/>
        <path class="cls-1" d="M154.79,82.3l1.72.6c-.27,1.06-.7,1.85-1.32,2.36-.62.51-1.39.77-2.34.77-1.17,0-2.13-.44-2.88-1.32-.75-.88-1.13-2.09-1.13-3.61,0-1.62.38-2.87,1.13-3.77.76-.89,1.75-1.34,2.98-1.34,1.08,0,1.95.35,2.62,1.05.4.42.7,1.01.9,1.79l-1.76.46c-.11-.5-.32-.9-.65-1.19s-.73-.44-1.2-.44c-.65,0-1.18.26-1.59.78s-.61,1.35-.61,2.51c0,1.23.2,2.1.6,2.62.4.52.92.78,1.56.78.47,0,.88-.17,1.22-.5.34-.33.59-.85.73-1.56Z"/>
        <path class="cls-1" d="M159.75,85.88v-9.71h6.53v1.64h-4.75v2.15h4.42v1.64h-4.42v2.64h4.92v1.64h-6.69Z"/>
        <path class="cls-1" d="M169.69,85.88v-9.71h1.73l3.6,6.49v-6.49h1.65v9.71h-1.78l-3.55-6.34v6.34h-1.65Z"/>
        <path class="cls-1" d="M182.26,85.88v-8.07h-2.61v-1.64h6.99v1.64h-2.6v8.07h-1.78Z"/>
        <path class="cls-1" d="M189.51,85.88v-9.71h3.74c.94,0,1.63.09,2.05.26s.77.48,1.02.93c.26.45.38.96.38,1.53,0,.73-.2,1.33-.58,1.81-.39.48-.97.78-1.74.9.39.25.7.52.95.82.25.3.59.82,1.01,1.58l1.07,1.9h-2.12l-1.28-2.11c-.46-.76-.77-1.23-.94-1.43-.17-.2-.35-.33-.54-.4s-.49-.11-.89-.11h-.36v4.06h-1.78ZM191.29,80.27h1.31c.85,0,1.38-.04,1.6-.12.21-.08.38-.22.5-.41s.18-.44.18-.73c0-.33-.08-.59-.24-.79-.16-.2-.38-.33-.67-.38-.15-.02-.58-.03-1.3-.03h-1.39v2.47Z"/>
        <path class="cls-1" d="M208.04,85.88h-1.93l-.77-2.21h-3.52l-.73,2.21h-1.89l3.43-9.71h1.88l3.52,9.71ZM204.77,82.03l-1.21-3.6-1.19,3.6h2.4Z"/>
        <path class="cls-1" d="M210.75,85.88v-9.64h1.78v8h4.42v1.64h-6.2Z"/>
        <path class="cls-1" d="M219.88,85.88v-9.71h1.78v9.71h-1.78Z"/>
        <path class="cls-1" d="M224.31,85.88v-1.77l4.62-6.3h-4.1v-1.64h6.44v1.52l-4.82,6.55h5.01v1.64h-7.15Z"/>
        <path class="cls-1" d="M234.3,85.88v-9.71h6.53v1.64h-4.75v2.15h4.42v1.64h-4.42v2.64h4.92v1.64h-6.69Z"/>
        <path class="cls-1" d="M244.22,76.16h3.25c.73,0,1.29.06,1.68.19.52.17.96.47,1.32.9.37.43.65.95.84,1.57.19.62.29,1.39.29,2.3,0,.8-.09,1.49-.27,2.07-.22.71-.53,1.28-.94,1.72-.31.33-.72.59-1.25.78-.39.14-.92.21-1.57.21h-3.34v-9.71ZM245.99,77.8v6.44h1.33c.5,0,.85-.03,1.07-.09.29-.08.53-.21.72-.4s.35-.5.47-.94c.12-.44.18-1.03.18-1.78s-.06-1.33-.18-1.73-.29-.71-.51-.94c-.22-.23-.49-.38-.82-.46-.25-.06-.74-.09-1.46-.09h-.8Z"/>
        <path class="cls-1" d="M150,102.16v-9.71h6.53v1.64h-4.75v2.15h4.42v1.64h-4.42v2.64h4.92v1.64h-6.69Z"/>
        <path class="cls-1" d="M159.03,102.16l3.01-5.07-2.72-4.65h2.08l1.77,3.12,1.73-3.12h2.06l-2.74,4.72,3.01,5h-2.14l-1.95-3.36-1.96,3.36h-2.13Z"/>
        <path class="cls-1" d="M175.48,98.59l1.72.6c-.27,1.06-.7,1.85-1.32,2.36-.62.51-1.39.77-2.34.77-1.17,0-2.13-.44-2.88-1.32-.75-.88-1.13-2.09-1.13-3.61,0-1.62.38-2.87,1.13-3.77.76-.89,1.75-1.34,2.98-1.34,1.08,0,1.95.35,2.62,1.05.4.42.7,1.01.9,1.79l-1.76.46c-.11-.5-.32-.9-.65-1.19s-.73-.44-1.2-.44c-.65,0-1.18.26-1.59.78s-.61,1.35-.61,2.51c0,1.23.2,2.1.6,2.62.4.52.92.78,1.56.78.47,0,.88-.17,1.22-.5.34-.33.59-.85.73-1.56Z"/>
        <path class="cls-1" d="M180.45,102.16v-9.71h1.78v3.82h3.48v-3.82h1.78v9.71h-1.78v-4.25h-3.48v4.25h-1.78Z"/>
        <path class="cls-1" d="M198.98,102.16h-1.93l-.77-2.21h-3.52l-.73,2.21h-1.89l3.43-9.71h1.88l3.52,9.71ZM195.71,98.32l-1.21-3.6-1.19,3.6h2.4Z"/>
        <path class="cls-1" d="M201.66,102.16v-9.71h1.73l3.6,6.49v-6.49h1.65v9.71h-1.78l-3.55-6.34v6.34h-1.65Z"/>
        <path class="cls-1" d="M216.34,98.59v-1.64h3.83v3.87c-.37.4-.91.75-1.62,1.05-.71.3-1.42.45-2.15.45-.92,0-1.73-.21-2.41-.64-.68-.43-1.2-1.04-1.54-1.83-.34-.79-.52-1.66-.52-2.59,0-1.01.19-1.91.58-2.7.39-.79.95-1.39,1.69-1.81.56-.32,1.27-.48,2.11-.48,1.09,0,1.95.25,2.56.76.61.51,1.01,1.2,1.18,2.1l-1.77.36c-.12-.48-.36-.85-.7-1.13-.34-.28-.77-.41-1.28-.41-.78,0-1.39.27-1.85.82s-.69,1.35-.69,2.42c0,1.15.23,2.02.7,2.6.47.58,1.07.86,1.83.86.37,0,.75-.08,1.12-.24s.7-.36.96-.59v-1.23h-2.04Z"/>
        <path class="cls-1" d="M223.53,102.16v-9.71h6.53v1.64h-4.75v2.15h4.42v1.64h-4.42v2.64h4.92v1.64h-6.69Z"/>
      </g>
      <path class="cls-1" d="M93.86,90.25l-2.48-6-9.47-5.65-.03.04-2-5.19-35.2-33.9-1.56-10.13,4.26-2.37-9.51-20.38-4.6-1.67-.52-.19L21.11.57l-6.1,5.06L0,0l.57,10.47,10.77,4.97.29,4.47,7.92,3.47-6.04,17.79,8.67,32.01-.3-1.28-1.35,27.16-10.32,9.96h13.33l8.43-9.61,5.5-15.95,18.89,12.34-12.42,13.06,49.53-.17-7.31-18.95,7.69.5ZM90.22,85.24l1.42,3.42-6.05-.39-2.9-7.52,7.53,4.49ZM43.28,39.98l1.71,14.71-16.08-15.79,3.89-.84.82-9.03,2.65,4.2,5.49-3.06,1.51,9.82ZM33.21,6.5l3.6,1.31,8.69,18.62-8.73,4.86-4.23-6.71.66-18.09ZM1.96,9.53l-.4-7.4,12.18,4.57-2.81,2.34.31,4.77L1.96,9.53ZM12.41,9.67l8.99-7.46,10.73,3.9-8.3,17.57-10.82-4.74-.6-9.27ZM24.53,25.57l7.08-15-.53,14.42,1.28,2.03-.9,9.86-16.16,3.51,5.57-16.41,3.66,1.6ZM20.42,101.18l-.34,6.41h-6.31l6.64-6.41ZM22.88,107.58h-1.34l.34-6.43,1.24-24.54,6.35,23.47-6.58,7.5ZM30.69,98.67l-.09.1-15.4-56.9,12.48-2.71-.27.27,17.71,17.39-14.43,41.84ZM37.95,82.05l8.31-24.11.58.07,9.05,5.48,10.71,21.41.24-.12-9.46,9.96-19.42-12.69ZM64.99,102.1l10.13-9.77,7.62,14.96-17.7.06-.05-5.25ZM64.97,100.12l-.1-11.18,5.54-5.83,4.01,7.88-9.46,9.13ZM67.69,83.88l-9.49-18.99,17.49,10.58-7.99,8.41ZM63.44,90.44l.15,16.91-16.28.06,16.13-16.97ZM84.35,107.28l-12.88-25.29,6.5-6.83-31.34-18.97-1.68-14.39,33.69,32.45,12.73,33-7.02.02Z"/>
    </g>
  </g>
</svg>